<svg width="200" height="50" viewBox="0 0 200 50" fill="none" xmlns="http://www.w3.org/2000/svg">
<g clip-path="url(#clip0_5_742)">
<path d="M55.8433 28.4087C57.1142 28.4087 58.1444 27.3784 58.1444 26.1075C58.1444 24.8367 57.1142 23.8064 55.8433 23.8064C54.5724 23.8064 53.5421 24.8367 53.5421 26.1075C53.5421 27.3784 54.5724 28.4087 55.8433 28.4087Z" fill="black"/>
<path d="M57.0521 25.5586L56.2203 4.01648H55.6936L54.9394 25.4477L54.8618 27.6435L70.238 26.8506V26.2462L57.0521 25.5586Z" fill="black"/>
<path d="M61.4382 8.08639C61.8208 8.25829 62.2644 8.0864 62.4307 7.70379L63.3567 5.62444C63.5286 5.24184 63.3567 4.79824 62.9741 4.63189C62.5915 4.46 62.1479 4.63189 61.9816 5.01449L61.0556 7.09385C60.8892 7.47091 61.0611 7.92005 61.4382 8.08639Z" fill="black"/>
<path d="M69.7611 13.7146C70.0162 14.0418 70.493 14.0972 70.8202 13.8421L72.6057 12.4337C72.9328 12.1786 72.9883 11.7018 72.7332 11.3746C72.4781 11.0475 72.0013 10.992 71.6741 11.2471L69.8886 12.6555C69.5615 12.9106 69.5005 13.3874 69.7611 13.7146Z" fill="black"/>
<path d="M73.881 21.9987C73.9919 22.398 74.4078 22.6309 74.8126 22.52L77.0028 21.9045C77.402 21.7936 77.6349 21.3777 77.524 20.9729C77.4131 20.5737 76.9973 20.3408 76.5925 20.4517L74.4022 21.0672C73.9974 21.1836 73.7646 21.5995 73.881 21.9987Z" fill="black"/>
<path d="M62.8188 15.2339C63.157 15.4723 63.6284 15.3947 63.8668 15.0509L68.763 8.11417C69.0014 7.77593 68.9238 7.30461 68.58 7.06618C68.2418 6.82774 67.7704 6.90537 67.532 7.24916L62.6358 14.1859C62.3974 14.5241 62.4806 14.9899 62.8188 15.2339Z" fill="black"/>
<path d="M67.0552 20.4405C67.2548 20.8065 67.7095 20.9451 68.0755 20.7455L75.5445 16.7088C75.9105 16.5092 76.0491 16.0545 75.8495 15.6885C75.6498 15.3226 75.1952 15.1839 74.8292 15.3835L67.3602 19.4203C66.9942 19.6199 66.8556 20.0746 67.0552 20.4405Z" fill="black"/>
<path d="M55.9985 48.9971C52.7603 48.9971 49.6163 48.3649 46.6553 47.1118C43.7996 45.903 41.2323 44.173 39.0254 41.9716C36.8186 39.7703 35.0941 37.203 33.8853 34.3418C32.6321 31.3808 32 28.2423 32 24.9985C32 21.7603 32.6321 18.6163 33.8853 15.6553C35.0941 12.7996 36.8241 10.2323 39.0254 8.02545C41.2268 5.82411 43.7941 4.09408 46.6553 2.88528C49.6163 1.63212 52.7547 1 55.9985 1C56.3035 1 56.553 1.24952 56.553 1.55449C56.553 1.85947 56.3035 2.10899 55.9985 2.10899C52.91 2.10899 49.9102 2.71339 47.0878 3.90555C44.3652 5.0589 41.9144 6.7113 39.8128 8.81283C37.7113 10.9144 36.0589 13.3652 34.9056 16.0878C33.7134 18.9102 33.109 21.9045 33.109 24.9985C33.109 28.0926 33.7134 31.0869 34.9056 33.9093C36.0589 36.6374 37.7113 39.0827 39.8128 41.1842C41.9144 43.2858 44.3652 44.9382 47.0878 46.0915C49.9102 47.2837 52.9045 47.8881 55.9985 47.8881C61.8318 47.8881 67.3934 45.6923 71.6464 41.7055C75.8827 37.7353 78.4334 32.3678 78.8326 26.5955C78.8548 26.2905 79.121 26.0576 79.4259 26.0798C79.7309 26.102 79.9638 26.3681 79.9416 26.6731C79.5257 32.7282 76.8475 38.3508 72.4116 42.515C67.9423 46.6959 62.1146 48.9971 55.9985 48.9971Z" fill="black"/>
<path d="M56.0429 46.025C54.9339 46.025 54.0301 45.1212 54.0301 44.0122C54.0301 42.9032 54.9339 41.9994 56.0429 41.9994C57.1519 41.9994 58.0557 42.9032 58.0557 44.0122C58.0557 45.1212 57.1574 46.025 56.0429 46.025ZM56.0429 43.1028C55.5439 43.1028 55.1391 43.5076 55.1391 44.0067C55.1391 44.5057 55.5439 44.9105 56.0429 44.9105C56.542 44.9105 56.9467 44.5057 56.9467 44.0067C56.9523 43.5132 56.5475 43.1028 56.0429 43.1028Z" fill="black"/>
<path d="M37.8388 28.4752C36.7298 28.4752 35.826 27.5714 35.826 26.4624C35.826 25.3534 36.7298 24.4496 37.8388 24.4496C38.9478 24.4496 39.8516 25.3534 39.8516 26.4624C39.8516 27.5714 38.9478 28.4752 37.8388 28.4752ZM37.8388 25.553C37.3398 25.553 36.935 25.9578 36.935 26.4569C36.935 26.9559 37.3398 27.3607 37.8388 27.3607C38.3378 27.3607 38.7426 26.9559 38.7426 26.4569C38.7426 25.9578 38.3378 25.553 37.8388 25.553Z" fill="black"/>
</g>
<g clip-path="url(#clip1_5_742)">
<path d="M87.9804 25.1169C87.9804 24.4657 88.0973 23.8271 88.331 23.201C88.5675 22.5749 88.9112 22.0045 89.362 21.4897C89.8128 20.9722 90.3637 20.5603 91.0148 20.2542C91.666 19.9509 92.4075 19.7993 93.2395 19.7993C94.219 19.7993 95.0677 20.0135 95.7856 20.4421C96.5008 20.8734 97.0336 21.4355 97.3842 22.1283L95.794 23.2219C95.6131 22.8212 95.3766 22.504 95.0844 22.2702C94.795 22.0337 94.4848 21.8682 94.1536 21.7735C93.8225 21.6789 93.4969 21.6316 93.1769 21.6316C92.6566 21.6316 92.203 21.736 91.8162 21.9447C91.4322 22.1562 91.1095 22.4316 90.8479 22.7711C90.5891 23.1134 90.3971 23.4946 90.2719 23.9148C90.1467 24.3349 90.0841 24.7551 90.0841 25.1753C90.0841 25.6483 90.1592 26.1019 90.3095 26.536C90.4597 26.9729 90.6726 27.3582 90.9481 27.6922C91.2235 28.0289 91.5533 28.2946 91.9373 28.4894C92.3241 28.6842 92.747 28.7815 93.2061 28.7815C93.5373 28.7815 93.874 28.7273 94.2162 28.6188C94.5557 28.5075 94.8701 28.3322 95.1595 28.0929C95.4517 27.8508 95.6771 27.5405 95.8357 27.1621L97.5345 28.1388C97.3258 28.6675 96.9835 29.1182 96.5077 29.4911C96.0319 29.8612 95.4976 30.1409 94.9049 30.3301C94.315 30.5221 93.7293 30.6181 93.1477 30.6181C92.3853 30.6181 91.6896 30.4595 91.0608 30.1422C90.4291 29.8278 89.8851 29.4076 89.4288 28.8817C88.9724 28.3558 88.6162 27.7645 88.3602 27.1078C88.107 26.4511 87.9804 25.7875 87.9804 25.1169ZM107.281 30.5262H99.7675V19.8577H101.842V28.7064H107.281V30.5262ZM113.692 30.6014C112.91 30.6014 112.2 30.4511 111.563 30.1506C110.929 29.8501 110.383 29.4424 109.927 28.9276C109.47 28.4101 109.117 27.8285 108.867 27.1829C108.616 26.5374 108.491 25.8737 108.491 25.192C108.491 24.4796 108.623 23.8007 108.888 23.1551C109.155 22.5095 109.521 21.9335 109.985 21.4271C110.453 20.9207 111.004 20.52 111.638 20.225C112.275 19.9301 112.974 19.7826 113.733 19.7826C114.507 19.7826 115.211 19.9384 115.845 20.2501C116.483 20.5589 117.027 20.9735 117.477 21.4939C117.928 22.017 118.279 22.5986 118.529 23.2386C118.78 23.8786 118.905 24.5395 118.905 25.2212C118.905 25.9224 118.774 26.5958 118.513 27.2414C118.254 27.8897 117.891 28.4657 117.423 28.9694C116.958 29.4758 116.408 29.8751 115.77 30.1673C115.136 30.4567 114.443 30.6014 113.692 30.6014ZM110.595 25.192C110.595 25.6539 110.664 26.0991 110.803 26.5276C110.945 26.9589 111.148 27.3429 111.413 27.6796C111.68 28.0135 112.005 28.2793 112.389 28.4769C112.776 28.6716 113.214 28.769 113.704 28.769C114.205 28.769 114.652 28.6661 115.044 28.4602C115.434 28.2542 115.759 27.9788 116.021 27.6337C116.28 27.2887 116.477 26.9033 116.613 26.4775C116.747 26.0518 116.814 25.6233 116.814 25.192C116.814 24.7301 116.741 24.2862 116.597 23.8605C116.452 23.4348 116.248 23.0549 115.983 22.721C115.716 22.3843 115.39 22.1186 115.006 21.9238C114.62 21.729 114.186 21.6316 113.704 21.6316C113.195 21.6316 112.747 21.7346 112.36 21.9405C111.973 22.1436 111.651 22.4163 111.392 22.7586C111.13 23.0981 110.933 23.4779 110.799 23.8981C110.663 24.321 110.595 24.7523 110.595 25.192ZM120.687 25.1169C120.687 24.4657 120.804 23.8271 121.038 23.201C121.274 22.5749 121.618 22.0045 122.069 21.4897C122.52 20.9722 123.07 20.5603 123.722 20.2542C124.373 19.9509 125.114 19.7993 125.946 19.7993C126.926 19.7993 127.774 20.0135 128.492 20.4421C129.208 20.8734 129.74 21.4355 130.091 22.1283L128.501 23.2219C128.32 22.8212 128.083 22.504 127.791 22.2702C127.502 22.0337 127.192 21.8682 126.86 21.7735C126.529 21.6789 126.204 21.6316 125.884 21.6316C125.363 21.6316 124.91 21.736 124.523 21.9447C124.139 22.1562 123.816 22.4316 123.555 22.7711C123.296 23.1134 123.104 23.4946 122.979 23.9148C122.853 24.3349 122.791 24.7551 122.791 25.1753C122.791 25.6483 122.866 26.1019 123.016 26.536C123.166 26.9729 123.379 27.3582 123.655 27.6922C123.93 28.0289 124.26 28.2946 124.644 28.4894C125.031 28.6842 125.454 28.7815 125.913 28.7815C126.244 28.7815 126.581 28.7273 126.923 28.6188C127.262 28.5075 127.577 28.3322 127.866 28.0929C128.158 27.8508 128.384 27.5405 128.542 27.1621L130.241 28.1388C130.033 28.6675 129.69 29.1182 129.214 29.4911C128.739 29.8612 128.204 30.1409 127.612 30.3301C127.022 30.5221 126.436 30.6181 125.854 30.6181C125.092 30.6181 124.396 30.4595 123.768 30.1422C123.136 29.8278 122.592 29.4076 122.136 28.8817C121.679 28.3558 121.323 27.7645 121.067 27.1078C120.814 26.4511 120.687 25.7875 120.687 25.1169ZM134.549 30.5262H132.474V19.8744H134.549V24.9374L139.027 19.8577H141.31L137.224 24.5909L141.565 30.5262H139.219L135.901 25.9266L134.549 27.3415V30.5262ZM152.146 30.6014C151.294 30.6014 150.571 30.4581 149.976 30.1715C149.377 29.8876 148.896 29.4953 148.531 28.9944C148.167 28.4935 147.898 27.9245 147.726 27.2873C147.556 26.6529 147.471 25.9892 147.471 25.2963V19.8577H149.546V25.2963C149.546 25.7388 149.589 26.1673 149.675 26.5819C149.758 26.9965 149.9 27.3694 150.101 27.7005C150.301 28.0316 150.567 28.2918 150.898 28.481C151.229 28.673 151.64 28.769 152.129 28.769C152.63 28.769 153.049 28.6716 153.386 28.4769C153.72 28.2793 153.985 28.0163 154.183 27.688C154.378 27.3569 154.52 26.9826 154.609 26.5652C154.7 26.1506 154.746 25.7276 154.746 25.2963V19.8577H156.804V25.2963C156.804 26.0282 156.716 26.7141 156.541 27.3541C156.366 27.9969 156.09 28.5603 155.715 29.0445C155.339 29.5315 154.855 29.9127 154.262 30.1882C153.672 30.4636 152.967 30.6014 152.146 30.6014ZM167.001 20.968L166.083 22.6542C166.013 22.5819 165.885 22.4859 165.699 22.3662C165.515 22.2466 165.29 22.1311 165.022 22.0198C164.758 21.9113 164.47 21.8139 164.158 21.7276C163.85 21.6442 163.534 21.6024 163.211 21.6024C162.652 21.6024 162.229 21.7068 161.942 21.9155C161.658 22.1269 161.516 22.4233 161.516 22.8045C161.516 23.0939 161.605 23.3235 161.784 23.4932C161.964 23.6629 162.236 23.809 162.597 23.9315C162.956 24.0511 163.407 24.1805 163.95 24.3196C164.651 24.4894 165.259 24.6981 165.774 24.9457C166.291 25.1906 166.688 25.5106 166.963 25.9057C167.239 26.3009 167.377 26.824 167.377 27.4751C167.377 28.0455 167.271 28.5339 167.059 28.9402C166.848 29.3464 166.557 29.6748 166.187 29.9252C165.817 30.1756 165.397 30.3579 164.926 30.472C164.456 30.5889 163.955 30.6473 163.424 30.6473C162.892 30.6473 162.361 30.5916 161.829 30.4803C161.298 30.3718 160.787 30.2146 160.298 30.0087C159.808 29.8028 159.357 29.5551 158.945 29.2657L159.864 27.4751C159.953 27.5669 160.113 27.6852 160.344 27.8299C160.574 27.9746 160.854 28.1193 161.182 28.264C161.514 28.4087 161.875 28.5311 162.268 28.6313C162.657 28.7315 163.052 28.7815 163.453 28.7815C164.015 28.7815 164.441 28.6869 164.73 28.4977C165.02 28.3085 165.164 28.0386 165.164 27.688C165.164 27.3652 165.05 27.1148 164.822 26.9367C164.591 26.7558 164.27 26.5972 163.858 26.4609C163.449 26.3273 162.963 26.1798 162.401 26.0184C161.731 25.8292 161.17 25.6163 160.719 25.3798C160.268 25.1433 159.933 24.8455 159.713 24.4866C159.491 24.1249 159.379 23.6741 159.379 23.1342C159.379 22.4024 159.553 21.7889 159.901 21.2935C160.246 20.7982 160.714 20.4226 161.304 20.1666C161.896 19.9106 162.553 19.7826 163.274 19.7826C163.774 19.7826 164.248 19.8382 164.693 19.9495C165.138 20.0581 165.557 20.2028 165.949 20.3836C166.339 20.5645 166.689 20.7593 167.001 20.968Z" fill="black"/>
</g>
<defs>
<clipPath id="clip0_5_742">
<rect width="47.9804" height="48" fill="white" transform="translate(32 1)"/>
</clipPath>
<clipPath id="clip1_5_742">
<rect width="79.3962" height="10.8647" fill="white" transform="translate(87.9804 19.7826)"/>
</clipPath>
</defs>
</svg>
